<?xml version="1.0" encoding="utf-8"?>
<!-- Generator: Adobe Illustrator 24.3.0, SVG Export Plug-In . SVG Version: 6.00 Build 0)  -->
<svg version="1.1" id="Capa_1" xmlns="http://www.w3.org/2000/svg" xmlns:xlink="http://www.w3.org/1999/xlink" x="0px" y="0px"
	 viewBox="0 0 78 102" style="enable-background:new 0 0 78 102;" xml:space="preserve">
<style type="text/css">
	.st0{fill:#E84262;}
	.st1{fill:#307ABE;}
	.st2{fill:#FFD631;}
	.st3{fill:#FFFFFF;}
</style>
<g id="XMLID_582_">
	<g id="XMLID_643_">
		<path id="XMLID_647_" class="st0" d="M44.34,3.13L22.78,24.7c-2.36,2.36-2.21,5.76-0.46,7.99l10.09-10.09
			c0.4-0.42,0.85-0.8,1.33-1.14c1.53-1.08,3.36-1.65,5.29-1.65H54.6V7.38C54.6,2.03,48.13-0.65,44.34,3.13z"/>
		<path id="XMLID_646_" class="st1" d="M23.64,38.77c1.53-1.08,3.36-1.65,5.29-1.65h5.23l-1.63-1.63c-1.36-1.36-2.25-3.06-2.57-4.91
			c-0.05-0.3-0.09-0.61-0.11-0.92L13.18,46.33c-3.78,3.78-1.1,10.25,4.25,10.25h8.77l-3.77-3.77c-1.36-1.36-2.25-3.06-2.57-4.91
			c-0.3-1.71-0.1-3.48,0.58-5.11C21.11,41.16,22.22,39.77,23.64,38.77z"/>
		<path id="XMLID_645_" class="st1" d="M60.59,22.98H39.03c-5.35,0-8.03,6.47-4.25,10.25l3.88,3.88h11.82
			c5.07,0,9.19,4.12,9.19,9.19v10.19c3.37,0.5,6.91-2,6.91-5.95V28.99C66.59,25.67,63.91,22.98,60.59,22.98z"/>
		<path id="XMLID_644_" class="st2" d="M24.68,50.56l21.56,21.56c3.78,3.78,10.25,1.1,10.25-4.25V46.31c0-3.32-2.69-6.01-6.01-6.01
			H28.93C23.58,40.31,20.9,46.78,24.68,50.56z"/>
	</g>
	<g id="XMLID_583_">
		<path id="XMLID_641_" class="st3" d="M8.65,82.36c-0.56-0.69-1.26-1.03-2.08-1.03c-0.36,0-0.7,0.07-1.01,0.2
			c-0.31,0.13-0.58,0.31-0.8,0.54c-0.22,0.23-0.4,0.5-0.53,0.81C4.1,83.2,4.04,83.54,4.04,83.9c0,0.37,0.06,0.72,0.19,1.03
			c0.13,0.31,0.31,0.59,0.53,0.82c0.23,0.23,0.49,0.41,0.8,0.55c0.31,0.13,0.64,0.2,0.99,0.2c0.78,0,1.48-0.33,2.1-0.99v2.88
			l-0.25,0.09c-0.37,0.13-0.72,0.23-1.04,0.29s-0.64,0.09-0.96,0.09c-0.65,0-1.26-0.12-1.85-0.37c-0.59-0.24-1.11-0.59-1.56-1.03
			c-0.45-0.44-0.81-0.97-1.09-1.58c-0.27-0.61-0.41-1.27-0.41-1.99c0-0.72,0.13-1.38,0.4-1.98c0.27-0.6,0.63-1.12,1.08-1.55
			c0.45-0.43,0.97-0.77,1.57-1.02c0.6-0.24,1.22-0.37,1.87-0.37c0.37,0,0.74,0.04,1.1,0.12c0.36,0.08,0.74,0.2,1.14,0.37V82.36z"/>
		<path id="XMLID_638_" class="st3" d="M10.22,83.91c0-0.69,0.13-1.34,0.38-1.94c0.26-0.6,0.61-1.12,1.07-1.57
			c0.45-0.45,1-0.8,1.63-1.05c0.63-0.25,1.33-0.38,2.09-0.38c0.75,0,1.45,0.13,2.08,0.38c0.64,0.25,1.18,0.6,1.64,1.05
			c0.46,0.45,0.82,0.97,1.07,1.57c0.26,0.6,0.38,1.25,0.38,1.94c0,0.69-0.13,1.34-0.38,1.94c-0.26,0.6-0.61,1.12-1.07,1.57
			c-0.46,0.45-1.01,0.8-1.64,1.05c-0.64,0.25-1.33,0.38-2.08,0.38c-0.76,0-1.46-0.13-2.09-0.38c-0.63-0.25-1.18-0.6-1.63-1.05
			c-0.46-0.45-0.81-0.97-1.07-1.57C10.34,85.26,10.22,84.61,10.22,83.91z M12.76,83.91c0,0.37,0.07,0.72,0.21,1.03
			c0.14,0.31,0.33,0.59,0.57,0.82c0.24,0.23,0.52,0.41,0.84,0.54c0.32,0.13,0.66,0.19,1.01,0.19c0.36,0,0.69-0.06,1.01-0.19
			c0.32-0.13,0.6-0.31,0.84-0.54c0.24-0.23,0.44-0.5,0.58-0.82c0.14-0.31,0.21-0.66,0.21-1.03s-0.07-0.72-0.21-1.03
			c-0.14-0.31-0.33-0.59-0.58-0.82c-0.24-0.23-0.53-0.41-0.84-0.54c-0.32-0.13-0.66-0.19-1.01-0.19c-0.36,0-0.69,0.06-1.01,0.19
			c-0.32,0.13-0.6,0.31-0.84,0.54c-0.24,0.23-0.43,0.5-0.57,0.82C12.83,83.2,12.76,83.54,12.76,83.91z"/>
		<path id="XMLID_636_" class="st3" d="M24.86,79.24v7.3h2.92v2.06h-5.35v-9.36H24.86z"/>
		<path id="XMLID_633_" class="st3" d="M28.73,83.91c0-0.69,0.13-1.34,0.38-1.94c0.26-0.6,0.61-1.12,1.07-1.57
			c0.45-0.45,1-0.8,1.63-1.05c0.63-0.25,1.33-0.38,2.09-0.38c0.75,0,1.45,0.13,2.08,0.38c0.64,0.25,1.18,0.6,1.64,1.05
			c0.46,0.45,0.82,0.97,1.07,1.57c0.26,0.6,0.38,1.25,0.38,1.94c0,0.69-0.13,1.34-0.38,1.94c-0.26,0.6-0.61,1.12-1.07,1.57
			c-0.46,0.45-1.01,0.8-1.64,1.05c-0.64,0.25-1.33,0.38-2.08,0.38c-0.76,0-1.46-0.13-2.09-0.38c-0.63-0.25-1.18-0.6-1.63-1.05
			c-0.46-0.45-0.81-0.97-1.07-1.57C28.86,85.26,28.73,84.61,28.73,83.91z M31.27,83.91c0,0.37,0.07,0.72,0.21,1.03
			c0.14,0.31,0.33,0.59,0.57,0.82c0.24,0.23,0.52,0.41,0.84,0.54c0.32,0.13,0.66,0.19,1.01,0.19c0.36,0,0.69-0.06,1.01-0.19
			c0.32-0.13,0.6-0.31,0.84-0.54c0.24-0.23,0.44-0.5,0.58-0.82c0.14-0.31,0.21-0.66,0.21-1.03s-0.07-0.72-0.21-1.03
			c-0.14-0.31-0.33-0.59-0.58-0.82c-0.24-0.23-0.53-0.41-0.84-0.54c-0.32-0.13-0.66-0.19-1.01-0.19c-0.36,0-0.69,0.06-1.01,0.19
			c-0.32,0.13-0.6,0.31-0.84,0.54c-0.24,0.23-0.43,0.5-0.57,0.82C31.34,83.2,31.27,83.54,31.27,83.91z"/>
		<path id="XMLID_631_" class="st3" d="M40.52,88.59l1.59-9.36h2.41l1.87,4.99l1.86-4.99h2.41l1.59,9.36h-2.42l-0.81-5.38
			l-2.21,5.38h-0.97l-2.1-5.38l-0.81,5.38H40.52z"/>
		<path id="XMLID_626_" class="st3" d="M54.09,79.24h3.62c0.86,0,1.51,0.21,1.96,0.62c0.45,0.41,0.67,1.01,0.67,1.79
			c0,0.47-0.08,0.86-0.25,1.17c-0.17,0.31-0.43,0.57-0.78,0.79c0.35,0.07,0.64,0.17,0.89,0.3c0.24,0.14,0.44,0.3,0.6,0.5
			c0.15,0.2,0.26,0.42,0.33,0.67c0.07,0.25,0.1,0.51,0.1,0.79c0,0.44-0.08,0.83-0.23,1.17c-0.15,0.34-0.37,0.62-0.65,0.86
			c-0.28,0.23-0.61,0.41-1.01,0.52c-0.4,0.12-0.84,0.17-1.34,0.17h-3.91V79.24z M56.52,82.91h0.45c0.76,0,1.14-0.3,1.14-0.91
			c0-0.6-0.38-0.91-1.14-0.91h-0.45V82.91z M56.52,86.71h0.53c0.61,0,1.05-0.08,1.32-0.24c0.26-0.16,0.4-0.41,0.4-0.76
			s-0.13-0.6-0.4-0.76c-0.26-0.16-0.7-0.24-1.32-0.24h-0.53V86.71z"/>
		<path id="XMLID_624_" class="st3" d="M65.42,79.24v9.36h-2.43v-9.36H65.42z"/>
		<path id="XMLID_621_" class="st3" d="M73.42,86.97h-3.47l-0.56,1.63h-2.59l3.56-9.36h2.66l3.56,9.36h-2.59L73.42,86.97z
			 M72.77,85.12L71.68,82l-1.09,3.11H72.77z"/>
		<g id="XMLID_584_">
			<path id="XMLID_619_" class="st3" d="M6.99,93.42c-0.26-0.21-0.53-0.37-0.79-0.48c-0.26-0.1-0.52-0.16-0.77-0.16
				c-0.31,0-0.57,0.07-0.77,0.22c-0.2,0.15-0.3,0.34-0.3,0.58c0,0.17,0.05,0.3,0.15,0.41c0.1,0.11,0.23,0.2,0.39,0.28
				c0.16,0.08,0.34,0.15,0.55,0.2c0.2,0.06,0.4,0.12,0.6,0.19c0.79,0.26,1.38,0.62,1.74,1.06c0.37,0.44,0.55,1.02,0.55,1.73
				c0,0.48-0.08,0.91-0.24,1.3c-0.16,0.39-0.4,0.72-0.71,1c-0.31,0.28-0.69,0.49-1.14,0.65c-0.45,0.15-0.96,0.23-1.53,0.23
				c-1.18,0-2.28-0.35-3.29-1.05l1.04-1.96c0.36,0.32,0.72,0.56,1.08,0.72c0.36,0.16,0.71,0.24,1.05,0.24c0.4,0,0.69-0.09,0.89-0.27
				c0.19-0.18,0.29-0.39,0.29-0.62c0-0.14-0.02-0.26-0.07-0.37c-0.05-0.1-0.13-0.2-0.25-0.29c-0.12-0.09-0.27-0.17-0.45-0.24
				c-0.19-0.07-0.41-0.16-0.68-0.25c-0.31-0.1-0.62-0.21-0.92-0.33c-0.3-0.12-0.57-0.28-0.81-0.48c-0.24-0.2-0.43-0.45-0.57-0.75
				c-0.14-0.3-0.22-0.68-0.22-1.15c0-0.46,0.08-0.88,0.23-1.26c0.15-0.38,0.37-0.7,0.65-0.97c0.28-0.27,0.62-0.48,1.02-0.63
				c0.4-0.15,0.85-0.22,1.35-0.22c0.46,0,0.95,0.06,1.45,0.19c0.5,0.13,0.99,0.32,1.45,0.56L6.99,93.42z"/>
			<path id="XMLID_616_" class="st3" d="M9.9,95.7c0-0.69,0.13-1.34,0.38-1.94c0.26-0.6,0.61-1.12,1.07-1.57
				c0.45-0.45,1-0.8,1.63-1.05c0.63-0.25,1.33-0.38,2.09-0.38c0.75,0,1.45,0.13,2.08,0.38c0.64,0.25,1.18,0.6,1.64,1.05
				c0.46,0.45,0.82,0.97,1.07,1.57c0.26,0.6,0.38,1.25,0.38,1.94c0,0.69-0.13,1.34-0.38,1.94c-0.26,0.6-0.61,1.12-1.07,1.57
				c-0.46,0.45-1.01,0.8-1.64,1.05c-0.64,0.25-1.33,0.38-2.08,0.38c-0.76,0-1.46-0.13-2.09-0.38c-0.63-0.25-1.18-0.6-1.63-1.05
				c-0.46-0.45-0.81-0.97-1.07-1.57C10.03,97.04,9.9,96.39,9.9,95.7z M12.45,95.7c0,0.37,0.07,0.72,0.21,1.03
				c0.14,0.31,0.33,0.59,0.57,0.82c0.24,0.23,0.52,0.41,0.84,0.54c0.32,0.13,0.66,0.19,1.01,0.19c0.36,0,0.69-0.06,1.01-0.19
				c0.32-0.13,0.6-0.31,0.84-0.54c0.24-0.23,0.44-0.5,0.58-0.82c0.14-0.31,0.21-0.66,0.21-1.03c0-0.37-0.07-0.72-0.21-1.03
				c-0.14-0.31-0.33-0.59-0.58-0.82c-0.24-0.23-0.53-0.41-0.84-0.54c-0.32-0.13-0.66-0.19-1.01-0.19c-0.36,0-0.69,0.06-1.01,0.19
				c-0.32,0.13-0.6,0.31-0.84,0.54c-0.24,0.23-0.43,0.5-0.57,0.82C12.52,94.98,12.45,95.33,12.45,95.7z"/>
			<path id="XMLID_614_" class="st3" d="M27.18,93.08h-2.93v1.56h2.67v2.06h-2.67v3.67h-2.43v-9.36h5.36V93.08z"/>
			<path id="XMLID_595_" class="st3" d="M33.47,93.08v7.3h-2.43v-7.3h-2v-2.06h6.43v2.06H33.47z"/>
			<path id="XMLID_593_" class="st3" d="M39.57,91.02l1.61,6.04l1.99-6.04h1.94l1.99,6.04l1.61-6.04h2.54l-2.79,9.36h-2.48
				l-1.84-5.42l-1.84,5.42h-2.48l-2.79-9.36H39.57z"/>
			<path id="XMLID_590_" class="st3" d="M57.66,98.75h-3.47l-0.56,1.63h-2.59l3.56-9.36h2.66l3.56,9.36h-2.59L57.66,98.75z
				 M57.02,96.9l-1.09-3.11l-1.09,3.11H57.02z"/>
			<path id="XMLID_587_" class="st3" d="M69.86,100.38h-3.03l-2.32-3.6v3.6h-2.43v-9.36h3.78c0.52,0,0.98,0.08,1.36,0.23
				c0.39,0.15,0.71,0.36,0.96,0.63c0.25,0.26,0.44,0.57,0.57,0.92c0.13,0.35,0.19,0.72,0.19,1.12c0,0.71-0.17,1.29-0.51,1.73
				c-0.34,0.44-0.85,0.74-1.52,0.9L69.86,100.38z M64.51,95.2h0.46c0.48,0,0.85-0.1,1.1-0.3c0.26-0.2,0.38-0.48,0.38-0.86
				c0-0.37-0.13-0.66-0.38-0.86c-0.26-0.2-0.62-0.3-1.1-0.3h-0.46V95.2z"/>
			<path id="XMLID_585_" class="st3" d="M76.45,93.08h-2.89v1.56h2.73v2.06h-2.73v1.61h2.89v2.06h-5.32v-9.36h5.32V93.08z"/>
		</g>
	</g>
</g>
</svg>
